<?xml version="1.0" standalone="no"?>
<!DOCTYPE svg PUBLIC "-//W3C//DTD SVG 20010904//EN"
 "http://www.w3.org/TR/2001/REC-SVG-20010904/DTD/svg10.dtd">
<svg version="1.0" xmlns="http://www.w3.org/2000/svg"
 width="132.000000pt" height="132.000000pt" viewBox="0 0 132.000000 132.000000"
 preserveAspectRatio="xMidYMid meet">

<g transform="translate(0.000000,132.000000) scale(0.100000,-0.100000)"
fill="#000000" stroke="none">
<path d="M389 1126 c-114 -41 -180 -160 -150 -272 16 -61 67 -127 93 -121 14
4 27 -3 43 -21 21 -25 29 -27 89 -25 67 1 134 28 129 51 -2 6 3 9 11 6 17 -6
58 47 75 95 58 173 -119 348 -290 287z m111 -86 c11 -6 17 -16 14 -25 -4 -9
-2 -21 3 -28 15 -18 23 -57 12 -57 -5 0 -9 -9 -9 -21 0 -11 -4 -17 -10 -14 -5
3 -10 1 -10 -4 0 -18 -17 -12 -41 14 -26 27 -59 33 -59 11 0 -7 -6 -19 -14
-25 -11 -9 -15 -8 -20 5 -10 27 -7 34 19 44 14 5 25 16 25 25 0 19 16 20 24 0
6 -17 43 -20 65 -6 13 8 13 12 1 26 -10 12 -26 15 -67 13 -29 -2 -53 -2 -53 2
0 3 7 16 16 28 17 24 70 30 104 12z m80 -144 c0 -2 -6 -9 -13 -15 -10 -8 -14
-7 -14 4 0 8 6 15 14 15 7 0 13 -2 13 -4z m-183 -128 c-3 -8 -6 -5 -6 6 -1 11
2 17 5 13 3 -3 4 -12 1 -19z"/>
</g>
</svg>
